<mxfile host="app.diagrams.net" modified="2024-04-21T05:46:04.233Z" agent="Mozilla/5.0 (Windows NT 10.0; Win64; x64) AppleWebKit/537.36 (KHTML, like Gecko) Chrome/123.0.0.0 Safari/537.36" etag="9m3py3eHswpcWM8kRKjr" version="24.2.5" type="device">
  <diagram id="y8FNjhbD6t3TXZn4Fuxv" name="Page-1">
    <mxGraphModel dx="794" dy="420" grid="1" gridSize="10" guides="1" tooltips="1" connect="1" arrows="1" fold="1" page="1" pageScale="1" pageWidth="850" pageHeight="1100" math="0" shadow="0">
      <root>
        <mxCell id="0" />
        <mxCell id="1" parent="0" />
        <mxCell id="7pWZ9fv7NeQBYnVctZZ5-2" value="" style="rounded=0;whiteSpace=wrap;html=1;direction=south;" vertex="1" parent="1">
          <mxGeometry x="180" y="30" width="450" height="830" as="geometry" />
        </mxCell>
        <mxCell id="7pWZ9fv7NeQBYnVctZZ5-3" value="SYSTEM" style="text;html=1;align=center;verticalAlign=middle;whiteSpace=wrap;rounded=0;" vertex="1" parent="1">
          <mxGeometry x="375" y="40" width="60" height="30" as="geometry" />
        </mxCell>
        <mxCell id="7pWZ9fv7NeQBYnVctZZ5-4" value="" style="ellipse;whiteSpace=wrap;html=1;fillColor=#dae8fc;strokeColor=#6c8ebf;" vertex="1" parent="1">
          <mxGeometry x="440" y="70" width="120" height="80" as="geometry" />
        </mxCell>
        <mxCell id="7pWZ9fv7NeQBYnVctZZ5-5" value="" style="ellipse;whiteSpace=wrap;html=1;fillColor=#dae8fc;strokeColor=#6c8ebf;" vertex="1" parent="1">
          <mxGeometry x="440" y="160" width="120" height="80" as="geometry" />
        </mxCell>
        <mxCell id="7pWZ9fv7NeQBYnVctZZ5-6" value="" style="ellipse;whiteSpace=wrap;html=1;fillColor=#dae8fc;strokeColor=#6c8ebf;" vertex="1" parent="1">
          <mxGeometry x="440" y="250" width="120" height="80" as="geometry" />
        </mxCell>
        <mxCell id="7pWZ9fv7NeQBYnVctZZ5-7" value="" style="ellipse;whiteSpace=wrap;html=1;fillColor=#dae8fc;strokeColor=#6c8ebf;" vertex="1" parent="1">
          <mxGeometry x="200" y="220" width="120" height="80" as="geometry" />
        </mxCell>
        <mxCell id="7pWZ9fv7NeQBYnVctZZ5-8" value="" style="ellipse;whiteSpace=wrap;html=1;fillColor=#dae8fc;strokeColor=#6c8ebf;" vertex="1" parent="1">
          <mxGeometry x="200" y="310" width="120" height="80" as="geometry" />
        </mxCell>
        <mxCell id="7pWZ9fv7NeQBYnVctZZ5-9" value="" style="ellipse;whiteSpace=wrap;html=1;fillColor=#dae8fc;strokeColor=#6c8ebf;" vertex="1" parent="1">
          <mxGeometry x="200" y="450" width="120" height="80" as="geometry" />
        </mxCell>
        <mxCell id="7pWZ9fv7NeQBYnVctZZ5-10" value="Payment" style="ellipse;whiteSpace=wrap;html=1;fillColor=#dae8fc;strokeColor=#6c8ebf;" vertex="1" parent="1">
          <mxGeometry x="200" y="540" width="120" height="80" as="geometry" />
        </mxCell>
        <mxCell id="7pWZ9fv7NeQBYnVctZZ5-11" value="ViewReport" style="ellipse;whiteSpace=wrap;html=1;fillColor=#dae8fc;strokeColor=#6c8ebf;" vertex="1" parent="1">
          <mxGeometry x="200" y="630" width="120" height="80" as="geometry" />
        </mxCell>
        <mxCell id="7pWZ9fv7NeQBYnVctZZ5-12" value="LogOut" style="ellipse;whiteSpace=wrap;html=1;fillColor=#dae8fc;strokeColor=#6c8ebf;" vertex="1" parent="1">
          <mxGeometry x="200" y="720" width="120" height="80" as="geometry" />
        </mxCell>
        <mxCell id="7pWZ9fv7NeQBYnVctZZ5-13" value="" style="ellipse;whiteSpace=wrap;html=1;fillColor=#dae8fc;strokeColor=#6c8ebf;" vertex="1" parent="1">
          <mxGeometry x="470" y="490" width="120" height="80" as="geometry" />
        </mxCell>
        <mxCell id="7pWZ9fv7NeQBYnVctZZ5-14" value="Updation" style="text;html=1;align=center;verticalAlign=middle;whiteSpace=wrap;rounded=0;" vertex="1" parent="1">
          <mxGeometry x="470" y="95" width="60" height="30" as="geometry" />
        </mxCell>
        <mxCell id="7pWZ9fv7NeQBYnVctZZ5-15" value="Verification" style="text;html=1;align=center;verticalAlign=middle;whiteSpace=wrap;rounded=0;" vertex="1" parent="1">
          <mxGeometry x="470" y="185" width="60" height="30" as="geometry" />
        </mxCell>
        <mxCell id="7pWZ9fv7NeQBYnVctZZ5-16" value="AddUser" style="text;html=1;align=center;verticalAlign=middle;whiteSpace=wrap;rounded=0;" vertex="1" parent="1">
          <mxGeometry x="470" y="275" width="60" height="30" as="geometry" />
        </mxCell>
        <mxCell id="7pWZ9fv7NeQBYnVctZZ5-17" value="Visit" style="text;html=1;align=center;verticalAlign=middle;whiteSpace=wrap;rounded=0;" vertex="1" parent="1">
          <mxGeometry x="230" y="240" width="60" height="30" as="geometry" />
        </mxCell>
        <mxCell id="7pWZ9fv7NeQBYnVctZZ5-18" value="Register" style="text;html=1;align=center;verticalAlign=middle;whiteSpace=wrap;rounded=0;" vertex="1" parent="1">
          <mxGeometry x="230" y="335" width="60" height="30" as="geometry" />
        </mxCell>
        <mxCell id="7pWZ9fv7NeQBYnVctZZ5-19" value="Transection&lt;div&gt;Report&lt;/div&gt;" style="text;html=1;align=center;verticalAlign=middle;whiteSpace=wrap;rounded=0;" vertex="1" parent="1">
          <mxGeometry x="500" y="515" width="60" height="30" as="geometry" />
        </mxCell>
        <mxCell id="7pWZ9fv7NeQBYnVctZZ5-20" value="Login" style="text;html=1;align=center;verticalAlign=middle;whiteSpace=wrap;rounded=0;" vertex="1" parent="1">
          <mxGeometry x="230" y="475" width="60" height="30" as="geometry" />
        </mxCell>
        <mxCell id="7pWZ9fv7NeQBYnVctZZ5-21" value="ADMIN" style="shape=umlActor;verticalLabelPosition=bottom;verticalAlign=top;html=1;outlineConnect=0;" vertex="1" parent="1">
          <mxGeometry x="700" y="270" width="30" height="60" as="geometry" />
        </mxCell>
        <mxCell id="7pWZ9fv7NeQBYnVctZZ5-22" value="VISITOR" style="shape=umlActor;verticalLabelPosition=bottom;verticalAlign=top;html=1;outlineConnect=0;" vertex="1" parent="1">
          <mxGeometry x="80" y="300" width="30" height="60" as="geometry" />
        </mxCell>
        <mxCell id="7pWZ9fv7NeQBYnVctZZ5-23" value="SERVISE&lt;div&gt;PROVIDER&lt;/div&gt;" style="shape=umlActor;verticalLabelPosition=bottom;verticalAlign=top;html=1;outlineConnect=0;" vertex="1" parent="1">
          <mxGeometry x="700" y="560" width="30" height="60" as="geometry" />
        </mxCell>
        <mxCell id="7pWZ9fv7NeQBYnVctZZ5-24" value="REGISTERED&lt;div&gt;USER&lt;/div&gt;" style="shape=umlActor;verticalLabelPosition=bottom;verticalAlign=top;html=1;outlineConnect=0;" vertex="1" parent="1">
          <mxGeometry x="80" y="600" width="30" height="60" as="geometry" />
        </mxCell>
        <mxCell id="7pWZ9fv7NeQBYnVctZZ5-25" value="" style="endArrow=classic;html=1;rounded=0;entryX=0;entryY=0.5;entryDx=0;entryDy=0;" edge="1" parent="1" target="7pWZ9fv7NeQBYnVctZZ5-7">
          <mxGeometry width="50" height="50" relative="1" as="geometry">
            <mxPoint x="110" y="320" as="sourcePoint" />
            <mxPoint x="160" y="270" as="targetPoint" />
          </mxGeometry>
        </mxCell>
        <mxCell id="7pWZ9fv7NeQBYnVctZZ5-26" value="" style="endArrow=classic;html=1;rounded=0;entryX=0;entryY=0.5;entryDx=0;entryDy=0;" edge="1" parent="1" target="7pWZ9fv7NeQBYnVctZZ5-8">
          <mxGeometry width="50" height="50" relative="1" as="geometry">
            <mxPoint x="110" y="320" as="sourcePoint" />
            <mxPoint x="160" y="270" as="targetPoint" />
          </mxGeometry>
        </mxCell>
        <mxCell id="7pWZ9fv7NeQBYnVctZZ5-27" value="" style="endArrow=classic;html=1;rounded=0;exitX=0;exitY=0.3333333333333333;exitDx=0;exitDy=0;exitPerimeter=0;entryX=1;entryY=0.5;entryDx=0;entryDy=0;" edge="1" parent="1" source="7pWZ9fv7NeQBYnVctZZ5-21" target="7pWZ9fv7NeQBYnVctZZ5-4">
          <mxGeometry width="50" height="50" relative="1" as="geometry">
            <mxPoint x="650" y="270" as="sourcePoint" />
            <mxPoint x="700" y="220" as="targetPoint" />
          </mxGeometry>
        </mxCell>
        <mxCell id="7pWZ9fv7NeQBYnVctZZ5-28" value="" style="endArrow=classic;html=1;rounded=0;exitX=0;exitY=0.3333333333333333;exitDx=0;exitDy=0;exitPerimeter=0;entryX=1;entryY=1;entryDx=0;entryDy=0;" edge="1" parent="1" source="7pWZ9fv7NeQBYnVctZZ5-21" target="7pWZ9fv7NeQBYnVctZZ5-5">
          <mxGeometry width="50" height="50" relative="1" as="geometry">
            <mxPoint x="640" y="350" as="sourcePoint" />
            <mxPoint x="690" y="300" as="targetPoint" />
          </mxGeometry>
        </mxCell>
        <mxCell id="7pWZ9fv7NeQBYnVctZZ5-29" value="" style="endArrow=classic;html=1;rounded=0;exitX=0;exitY=0.3333333333333333;exitDx=0;exitDy=0;exitPerimeter=0;entryX=1;entryY=0.5;entryDx=0;entryDy=0;" edge="1" parent="1" source="7pWZ9fv7NeQBYnVctZZ5-21" target="7pWZ9fv7NeQBYnVctZZ5-6">
          <mxGeometry width="50" height="50" relative="1" as="geometry">
            <mxPoint x="650" y="410" as="sourcePoint" />
            <mxPoint x="700" y="360" as="targetPoint" />
          </mxGeometry>
        </mxCell>
        <mxCell id="7pWZ9fv7NeQBYnVctZZ5-30" value="" style="endArrow=classic;html=1;rounded=0;exitX=0;exitY=0.3333333333333333;exitDx=0;exitDy=0;exitPerimeter=0;entryX=1;entryY=0.5;entryDx=0;entryDy=0;" edge="1" parent="1" source="7pWZ9fv7NeQBYnVctZZ5-21" target="7pWZ9fv7NeQBYnVctZZ5-8">
          <mxGeometry width="50" height="50" relative="1" as="geometry">
            <mxPoint x="670" y="430" as="sourcePoint" />
            <mxPoint x="720" y="380" as="targetPoint" />
          </mxGeometry>
        </mxCell>
        <mxCell id="7pWZ9fv7NeQBYnVctZZ5-31" value="" style="endArrow=classic;html=1;rounded=0;exitX=0;exitY=0.3333333333333333;exitDx=0;exitDy=0;exitPerimeter=0;entryX=1;entryY=0.5;entryDx=0;entryDy=0;" edge="1" parent="1" source="7pWZ9fv7NeQBYnVctZZ5-23" target="7pWZ9fv7NeQBYnVctZZ5-13">
          <mxGeometry width="50" height="50" relative="1" as="geometry">
            <mxPoint x="650" y="740" as="sourcePoint" />
            <mxPoint x="700" y="690" as="targetPoint" />
          </mxGeometry>
        </mxCell>
        <mxCell id="7pWZ9fv7NeQBYnVctZZ5-32" value="" style="endArrow=classic;html=1;rounded=0;exitX=0;exitY=0.3333333333333333;exitDx=0;exitDy=0;exitPerimeter=0;entryX=1;entryY=0.5;entryDx=0;entryDy=0;" edge="1" parent="1" source="7pWZ9fv7NeQBYnVctZZ5-23" target="7pWZ9fv7NeQBYnVctZZ5-10">
          <mxGeometry width="50" height="50" relative="1" as="geometry">
            <mxPoint x="670" y="740" as="sourcePoint" />
            <mxPoint x="720" y="690" as="targetPoint" />
          </mxGeometry>
        </mxCell>
        <mxCell id="7pWZ9fv7NeQBYnVctZZ5-33" value="" style="endArrow=classic;html=1;rounded=0;entryX=0;entryY=0.5;entryDx=0;entryDy=0;" edge="1" parent="1" target="7pWZ9fv7NeQBYnVctZZ5-9">
          <mxGeometry width="50" height="50" relative="1" as="geometry">
            <mxPoint x="110" y="620" as="sourcePoint" />
            <mxPoint x="160" y="570" as="targetPoint" />
          </mxGeometry>
        </mxCell>
        <mxCell id="7pWZ9fv7NeQBYnVctZZ5-34" value="" style="endArrow=classic;html=1;rounded=0;entryX=0;entryY=0.5;entryDx=0;entryDy=0;" edge="1" parent="1" target="7pWZ9fv7NeQBYnVctZZ5-10">
          <mxGeometry width="50" height="50" relative="1" as="geometry">
            <mxPoint x="110" y="620" as="sourcePoint" />
            <mxPoint x="160" y="570" as="targetPoint" />
          </mxGeometry>
        </mxCell>
        <mxCell id="7pWZ9fv7NeQBYnVctZZ5-35" value="" style="endArrow=classic;html=1;rounded=0;exitX=1;exitY=0.3333333333333333;exitDx=0;exitDy=0;exitPerimeter=0;entryX=0;entryY=0.5;entryDx=0;entryDy=0;" edge="1" parent="1" source="7pWZ9fv7NeQBYnVctZZ5-24" target="7pWZ9fv7NeQBYnVctZZ5-11">
          <mxGeometry width="50" height="50" relative="1" as="geometry">
            <mxPoint x="100" y="780" as="sourcePoint" />
            <mxPoint x="150" y="730" as="targetPoint" />
          </mxGeometry>
        </mxCell>
        <mxCell id="7pWZ9fv7NeQBYnVctZZ5-36" value="" style="endArrow=classic;html=1;rounded=0;exitX=1;exitY=0.3333333333333333;exitDx=0;exitDy=0;exitPerimeter=0;entryX=0;entryY=0.5;entryDx=0;entryDy=0;" edge="1" parent="1" source="7pWZ9fv7NeQBYnVctZZ5-24" target="7pWZ9fv7NeQBYnVctZZ5-12">
          <mxGeometry width="50" height="50" relative="1" as="geometry">
            <mxPoint x="110" y="800" as="sourcePoint" />
            <mxPoint x="160" y="750" as="targetPoint" />
          </mxGeometry>
        </mxCell>
      </root>
    </mxGraphModel>
  </diagram>
</mxfile>
